# xmcd CD database file
#
# Track frame offsets:
#	200
#	40715
#	75937
#	101442
#	141192
#	168730
#	202550
#	224297
#	253327
#	266235
#	292872
#	322130
#
# Disc length: 4486 seconds
#
# Revision: 0
# Processed by: cddbd v1.5.2PL0 Copyright (c) Steve Scherf et al.
# Submitted via: CDex 1.70beta2
#
DISCID=aa11840c
DTITLE=Various Artist - The September 1997 New Release Sampler
DYEAR=1997
DGENRE=Jazz
TTITLE0=Stan Getz - Voyage
TTITLE1=Stan Getz - Soul Eyes
TTITLE2=Rob McConnnell and The Boss Brass - Day Dream
TTITLE3=Rob McConnnell and The Boss Brass - Sophisticated Lady
TTITLE4=Bob Berg - You And The Night And The Music
TTITLE5=Bob Berg - My Man´s Gone Now
TTITLE6=Poncho Sanchez - Brown and Blue
TTITLE7=Poncho Sanchez - Freedom Sound
TTITLE8=Louisiana Red and Lefty Dizz - Sole From Me
TTITLE9=Ray Barretto - Ancestra Messages
TTITLE10=Mongo Santamaria - Con Mi Ritmo
TTITLE11=Tito Puente - Mambo King
EXTD=YEAR: 1997
EXTT0=
EXTT1=
EXTT2=
EXTT3=
EXTT4=
EXTT5=
EXTT6=
EXTT7=
EXTT8=
EXTT9=
EXTT10=
EXTT11=
PLAYORDER=
